<svg width="26" height="24" viewBox="0 0 26 24" fill="none" xmlns="http://www.w3.org/2000/svg">
<path d="M25.9824 6.05803C25.9956 5.96365 26 5.86498 26 5.76631C26 2.72903 20.1822 0.266602 13 0.266602C5.81775 0.266602 0 2.72903 0 5.76631V18.1814H0.0175535C0.372937 21.0814 6.05029 23.3894 13 23.3894C19.9497 23.3894 25.6227 21.0814 25.9824 18.1814C25.9956 18.0827 26 17.9884 26 17.8897C26 17.791 25.9956 17.6967 25.9824 17.598V6.05803ZM13 10.7555C6.73034 10.7555 1.64529 8.73066 1.64529 6.22963C1.64529 3.72859 6.73034 1.70373 13 1.70373C19.2697 1.70373 24.3547 3.72859 24.3547 6.22963C24.3547 8.73066 19.2697 10.7555 13 10.7555Z" fill="#424242"/>
<ellipse cx="7.58333" cy="3.25" rx="7.58333" ry="3.25" transform="matrix(-1 0 0 1 20.5833 3.21484)" fill="#424242"/>
</svg>
