<svg width="32" height="28" viewBox="0 0 32 28" fill="none" xmlns="http://www.w3.org/2000/svg">
<path d="M16.6844 16.072C16.6928 16.01 16.6957 15.9452 16.6957 15.8804C16.6957 13.8857 12.9598 12.2686 8.34783 12.2686C3.73581 12.2686 0 13.8857 0 15.8804V24.0338H0.0112718C0.239478 25.9384 3.88513 27.4541 8.34783 27.4541C12.8105 27.4541 16.4534 25.9384 16.6844 24.0338C16.6928 23.969 16.6957 23.9071 16.6957 23.8423C16.6957 23.7775 16.6928 23.7155 16.6844 23.6507V16.072ZM8.34783 19.157C4.32183 19.157 1.05651 17.8272 1.05651 16.1847C1.05651 14.5422 4.32183 13.2124 8.34783 13.2124C12.3738 13.2124 15.6391 14.5422 15.6391 16.1847C15.6391 17.8272 12.3738 19.157 8.34783 19.157Z" fill="#424242"/>
<ellipse cx="4.86957" cy="2.08696" rx="4.86957" ry="2.08696" transform="matrix(-1 0 0 1 13.2173 14.0117)" fill="#606060"/>
<path d="M31.9888 16.072C31.9973 16.01 32.0001 15.9452 32.0001 15.8804C32.0001 13.8857 28.2643 12.2686 23.6523 12.2686C19.0403 12.2686 15.3044 13.8857 15.3044 15.8804V24.0338H15.3157C15.5439 25.9384 19.1896 27.4541 23.6523 27.4541C28.115 27.4541 31.7578 25.9384 31.9888 24.0338C31.9973 23.969 32.0001 23.9071 32.0001 23.8423C32.0001 23.7775 31.9973 23.7155 31.9888 23.6507V16.072ZM23.6523 19.157C19.6263 19.157 16.361 17.8272 16.361 16.1847C16.361 14.5422 19.6263 13.2124 23.6523 13.2124C27.6783 13.2124 30.9436 14.5422 30.9436 16.1847C30.9436 17.8272 27.6783 19.157 23.6523 19.157Z" fill="#424242"/>
<ellipse cx="4.86957" cy="2.08696" rx="4.86957" ry="2.08696" transform="matrix(-1 0 0 1 28.522 14.0117)" fill="#606060"/>
<path d="M23.6844 4.30343C23.6928 4.24145 23.6957 4.17665 23.6957 4.11185C23.6957 2.11716 19.9598 0.5 15.3478 0.5C10.7358 0.5 7 2.11716 7 4.11185V12.2653H7.01127C7.23948 14.1698 10.8851 15.6855 15.3478 15.6855C19.8105 15.6855 23.4534 14.1698 23.6844 12.2653C23.6928 12.2005 23.6957 12.1385 23.6957 12.0737C23.6957 12.0089 23.6928 11.9469 23.6844 11.8821V4.30343ZM15.3478 7.38843C11.3218 7.38843 8.05651 6.05864 8.05651 4.41612C8.05651 2.77361 11.3218 1.44381 15.3478 1.44381C19.3738 1.44381 22.6391 2.77361 22.6391 4.41612C22.6391 6.05864 19.3738 7.38843 15.3478 7.38843Z" fill="#424242"/>
<ellipse cx="4.86957" cy="2.08696" rx="4.86957" ry="2.08696" transform="matrix(-1 0 0 1 20.2175 2.24316)" fill="#606060"/>
</svg>
