<svg width="14" height="40" viewBox="0 0 14 40" fill="none" xmlns="http://www.w3.org/2000/svg">
<path d="M8.40776 0.5C8.95254 0.5 9.74081 0.440914 9.87312 0.969384C10.0784 1.72466 9.50969 2.4685 8.72702 2.4685L5.27273 2.4685C4.49006 2.4685 3.92138 1.72466 4.12663 0.969384C4.27251 0.386683 5.17132 0.5 5.77201 0.5H8.40776Z" fill="#1F1F1F"/>
<path d="M4.62659 3.04492L9.35251 3.04492C9.75535 8.49213 11.6135 11.8806 12.5761 15.9559L12.5756 15.9564L12.4234 15.9926L1.57603 15.9926L1.42432 15.9569C2.37401 11.9169 4.21679 8.5749 4.62659 3.04492Z" fill="#2C2C2C"/>
<path d="M12.4234 15.9922L12.5756 15.9561C13.1374 18.3404 13.4284 20.9325 13.0961 23.8656L0.904274 23.8656C0.570699 20.9339 0.862518 18.3417 1.4244 15.9566L1.57611 15.9923L12.4234 15.9922Z" fill="white"/>
<path d="M13.0959 23.8662L12.2404 28.1467C11.7801 30.5667 11.5486 32.0593 12.4009 33.6789C13.7939 36.3237 12.888 38.652 11.3357 39.3559C10.2236 39.8612 8.21464 39.9066 6.99813 39.8891C5.76915 39.9071 3.78663 39.8668 2.66337 39.3559C1.11218 38.6517 0.209158 36.3174 1.59769 33.6785C2.45001 32.0597 2.21938 30.5672 1.75868 28.1476L0.904053 23.8662L13.0959 23.8662Z" fill="#2C2C2C"/>
</svg>
