<svg width="44" height="20" viewBox="0 0 44 20" fill="none" xmlns="http://www.w3.org/2000/svg">
<path d="M14.9448 7.07273C15.2323 6.43211 16.3421 3.9957 17.4115 1.71063C17.472 1.58452 17.5022 1.35248 17.0937 1.22637C15.9082 0.974158 15.197 0.868233 13.9864 0.726992C12.801 0.585752 11.6155 0.505044 10.4402 0.5C10.2838 0.5 10.1275 0.5 9.9711 0.5C8.65453 0.515133 7.36319 0.631153 6.11725 0.863191H6.10716C6.0668 0.873279 6.02645 0.878318 5.98609 0.888406C2.218 1.63496 2.28357 2.88595 1.93551 3.91499C1.56223 5.00456 2.39959 5.88732 2.06667 7.00211C1.82958 7.79911 -3.31057 14.049 3.56987 15.078C4.62413 15.2344 5.94069 15.2647 7.57001 15.1134C9.12365 14.9721 10.9699 14.6695 13.144 14.1751C13.3811 14.1196 14.0721 13.9582 14.2033 13.9279C14.511 13.8573 14.4303 13.6909 14.4202 13.6001C14.2688 11.8194 14.2638 8.59611 14.9448 7.08282V7.07273Z" fill="#424242"/>
<path d="M44.0001 9.65534C43.9597 9.44852 42.9862 9.31738 42.0984 9.49393C40.5498 9.79154 38.3404 11.1283 37.8713 11.0072C37.8107 10.9921 37.3971 11.0223 36.2974 10.2607C35.6316 9.80162 34.885 9.28206 33.9316 8.57082C33.2456 8.0563 32.489 7.51655 31.697 6.98186C30.2947 6.04361 28.7713 5.13564 27.3034 4.46979C27.1925 4.41935 27.0764 4.3689 26.9655 4.31846C25.8809 3.85439 24.6753 3.38527 23.384 2.94137C23.3235 2.92119 23.2579 2.90101 23.1974 2.87579C23.0813 2.83543 22.8543 2.7749 22.6929 3.07252C21.4974 5.48874 19.4797 9.58976 19.3183 10.1194C19.1417 10.6894 19.061 11.6478 19.0308 12.692C19.0308 12.7727 19.0308 12.9594 19.3032 12.8887C20.307 12.7223 20.988 12.6315 21.901 12.5256C23.6211 12.3238 25.1848 12.2178 26.5972 12.1825C28.2871 12.1371 29.765 12.1977 31.0362 12.3086C32.5394 12.4448 33.7501 12.6517 34.6782 12.8686C35.5257 13.0602 36.247 13.0905 36.5194 13.3982C36.5194 13.3982 40.3884 18.5636 41.5082 19.2143C41.6545 19.3001 41.7907 19.2698 41.8109 19.2647C42.396 19.1084 39.5359 12.5407 39.6922 12.3137C39.8284 12.1119 44.1212 10.2859 43.995 9.64525L44.0001 9.65534Z" fill="#424242"/>
</svg>
