<svg width="16" height="17" viewBox="0 0 16 17" fill="none" xmlns="http://www.w3.org/2000/svg">
<path fill-rule="evenodd" clip-rule="evenodd" d="M14.2 9.49491C14.12 9.40141 14.008 9.35048 13.896 9.35048H2.104C1.992 9.35048 1.88 9.40141 1.8 9.49491C1.728 9.5884 1.696 9.70752 1.704 9.83501L2.272 14.4076C2.456 15.8865 3.648 17 5.048 17H10.968C12.376 17 13.576 15.8865 13.752 14.3991L14.296 9.8265C14.304 9.70751 14.272 9.5884 14.2 9.49491ZM7.2 13.6002C7.2 14.0677 6.84 14.4502 6.4 14.4502C5.96 14.4502 5.6 14.0677 5.6 13.6002V11.9003C5.6 11.4329 5.96 11.0504 6.4 11.0504C6.84 11.0504 7.2 11.4329 7.2 11.9003V13.6002ZM10.4 13.6002C10.4 14.0677 10.04 14.4502 9.6 14.4502C9.16 14.4502 8.8 14.0677 8.8 13.6002V11.9003C8.8 11.4329 9.16 11.0504 9.6 11.0504C10.04 11.0504 10.4 11.4329 10.4 11.9003V13.6002ZM16 6.16319C16 7.21967 15.1944 8.07557 14.2 8.07557H1.8C0.8056 8.07557 0 7.21967 0 6.16319C0 5.1067 0.8056 4.25081 1.8 4.25081H3.54719L5.7144 0.413392C5.9416 0.00966759 6.43201 -0.120389 6.81201 0.121846C7.19121 0.36323 7.3136 0.88495 7.0864 1.28782L5.4136 4.24998H10.588L8.91521 1.28782C8.68801 0.88495 8.8104 0.36323 9.1896 0.121846C9.5688 -0.119539 10.06 0.0105175 10.2872 0.413392L12.4544 4.25081H14.2016C15.1944 4.25081 16 5.1067 16 6.16319Z" fill="#2A2A2F"/>
</svg>
