<svg width="14" height="15" viewBox="0 0 14 15" fill="none" xmlns="http://www.w3.org/2000/svg">
<path d="M13.256 13.8252C12.6503 14.5752 11.7845 15 10.8678 15C10.8391 15 10.8103 15 10.7816 14.9992C4.89547 14.8279 0.159595 9.75374 0.00116807 3.44804C-0.0246224 2.42407 0.377716 1.45376 1.10427 0.784267C1.79472 0.147144 2.6937 -0.118843 3.57205 0.0493194C3.7069 0.0753727 3.82258 0.10845 3.92133 0.143188C4.31039 0.281349 4.59335 0.642295 4.6582 1.08283L5.15193 4.44204C5.21383 4.86284 5.06055 5.28928 4.75327 5.55613C4.69138 5.60981 4.62725 5.66103 4.5602 5.7084C4.38924 5.83314 4.32439 6.04552 4.40103 6.23421C5.13937 8.054 6.48051 9.49084 8.17826 10.2819C8.3551 10.3648 8.55329 10.2938 8.67267 10.1067C8.7073 10.053 8.7434 10.0001 8.78025 9.94962C9.02783 9.61172 9.43387 9.44899 9.83473 9.51767L13.0268 10.0871C13.4483 10.1628 13.791 10.4826 13.9008 10.9026C13.9207 10.9791 13.9399 11.066 13.9561 11.1647C14.1101 12.1129 13.8551 13.0815 13.256 13.8252Z" fill="#2A2A2F"/>
</svg>
