<svg width="32" height="19" viewBox="0 0 32 19" fill="none" xmlns="http://www.w3.org/2000/svg">
<path d="M0 3.97266H32C32 3.97266 31.4644 9.37242 29.7674 12.2504C28.0301 15.1967 23.4419 18.2705 23.4419 18.2705H8.55814C8.55814 18.2705 3.59456 15.3171 1.86047 12.2504C0.285147 9.46445 0 3.97266 0 3.97266Z" fill="#2C2C2C"/>
<path d="M31 4.62754C31 4.76468 30.8969 5.11189 30.1782 5.60331C29.492 6.07249 28.4337 6.5348 27.0359 6.93907C24.2537 7.74372 20.3516 8.25507 16 8.25507C11.6484 8.25507 7.74628 7.74372 4.96413 6.93907C3.56635 6.5348 2.50795 6.07249 1.82181 5.60331C1.10313 5.11189 1 4.76468 1 4.62754C1 4.49039 1.10313 4.14319 1.82181 3.65176C2.50795 3.18258 3.56635 2.72027 4.96413 2.316C7.74628 1.51135 11.6484 1 16 1C20.3516 1 24.2537 1.51135 27.0359 2.316C28.4337 2.72027 29.492 3.18258 30.1782 3.65176C30.8969 4.14319 31 4.49039 31 4.62754Z" fill="white" stroke="#2C2C2C" stroke-width="2"/>
</svg>
