<svg width="30" height="26" viewBox="0 0 30 26" fill="none" xmlns="http://www.w3.org/2000/svg">
<path d="M29.3697 8.79693C29.4478 7.09932 28.4446 5.53773 26.8683 4.90287L16.2207 0.61473C15.2428 0.220921 14.1491 0.229035 13.1772 0.637308L2.95447 4.93169C1.46775 5.55624 0.501444 7.01244 0.503661 8.62501L0.515509 17.24C0.517738 18.8601 1.49694 20.3188 2.99547 20.9345L13.1753 25.1166C14.1485 25.5165 15.2402 25.5167 16.2136 25.1174L28.5862 20.0412C28.772 19.965 28.9078 19.7917 28.9078 19.5909V19.5909V19.5909C28.9078 19.3734 28.8936 19.1554 28.9036 18.9381L29.3697 8.79693ZM16.2043 10.998C15.2363 11.3926 14.1523 11.3926 13.1843 10.998L11.366 10.2568C8.04597 8.90336 8.04597 4.20209 11.366 2.84867L13.1843 2.10744C14.1523 1.71284 15.2363 1.71284 16.2043 2.10744L18.0226 2.84867C21.3426 4.20209 21.3426 8.90336 18.0226 10.2568L16.2043 10.998Z" fill="#424242"/>
<path d="M14.3195 1.39392C14.571 1.28611 14.8558 1.28611 15.1073 1.39392L25.0055 5.63601C25.8136 5.98234 25.8136 7.12797 25.0055 7.4743L15.1073 11.7164C14.8558 11.8242 14.571 11.8242 14.3195 11.7164L4.42128 7.4743C3.61318 7.12797 3.61318 5.98234 4.42128 5.63601L14.3195 1.39392Z" fill="white"/>
<path d="M14.2662 2.63279C14.5477 2.49202 14.8791 2.49202 15.1606 2.63279L20.0313 5.06812C20.7684 5.43665 20.7684 6.48845 20.0313 6.85698L15.1606 9.29231C14.8791 9.43308 14.5477 9.43308 14.2662 9.29231L9.39555 6.85698C8.6585 6.48845 8.6585 5.43665 9.39554 5.06812L14.2662 2.63279Z" fill="#424242"/>
</svg>
