<svg width="40" height="19" viewBox="0 0 40 19" fill="none" xmlns="http://www.w3.org/2000/svg">
<path d="M32.6076 13.0512C32.5159 13.0053 32.2316 13.0053 32.0114 13.0237C31.9335 13.0283 31.8418 13.0695 31.8143 13.1337C31.0805 14.8855 29.2142 16.009 27.2744 16.009H7.93176C6.75322 16.009 5.66182 15.5229 4.93727 14.9405C4.77677 14.7984 4.61627 14.8029 4.53831 14.7983C4.00637 14.78 3.50652 14.7387 3.04795 14.6699C2.77281 14.6287 2.516 14.5782 2.26379 14.5186C2.08953 14.4773 1.83273 14.5461 1.9382 14.7433C2.91955 16.6051 4.74009 18.0588 6.99627 18.0588H28.2053C30.5303 18.0588 32.548 16.4767 33.5431 14.1609C33.5568 14.1288 33.5889 14.0646 33.5202 13.9958C33.1487 13.5877 32.7314 13.1062 32.6076 13.042V13.0512Z" fill="#424242"/>
<path d="M13.5862 5.97521C13.8476 5.39282 14.8564 3.17791 15.8286 1.10057C15.8836 0.98593 15.9111 0.774983 15.5397 0.66034C14.462 0.431053 13.8155 0.334757 12.7149 0.206357C11.6372 0.0779561 10.5596 0.00458573 9.49111 0C9.34895 0 9.20679 0 9.06463 0C7.86776 0.0137572 6.69381 0.11923 5.56113 0.330173H5.55196C5.51527 0.339345 5.47859 0.343925 5.4419 0.353097C2.01636 1.03179 2.07597 2.16905 1.75956 3.10454C1.42021 4.09506 2.18145 4.89756 1.87879 5.91101C1.66326 6.63556 -3.00961 12.3173 3.24534 13.2528C4.20375 13.3949 5.40063 13.4224 6.88182 13.2849C8.29423 13.1565 9.97261 12.8813 11.9491 12.4319C12.1646 12.3815 12.7928 12.2347 12.9121 12.2072C13.1918 12.143 13.1184 11.9917 13.1093 11.9092C12.9717 10.2904 12.9671 7.3601 13.5862 5.98438V5.97521Z" fill="#424242"/>
<path d="M40.0002 8.32304C39.9635 8.13502 39.0784 8.0158 38.2713 8.1763C36.8635 8.44686 34.855 9.66208 34.4285 9.55202C34.3735 9.53826 33.9974 9.56577 32.9978 8.87332C32.3924 8.45602 31.7137 7.9837 30.847 7.33711C30.2234 6.86936 29.5355 6.37868 28.8156 5.8926C27.5407 5.03965 26.1558 4.21422 24.8214 3.6089C24.7205 3.56304 24.615 3.51719 24.5141 3.47133C23.5282 3.04944 22.4322 2.62297 21.2583 2.21943C21.2032 2.20108 21.1436 2.18274 21.0886 2.15981C20.9831 2.12312 20.7768 2.06809 20.63 2.33865C19.5432 4.53522 17.7089 8.26342 17.5622 8.74492C17.4017 9.26311 17.3283 10.1344 17.3008 11.0837C17.3008 11.157 17.3008 11.3267 17.5484 11.2625C18.461 11.1112 19.08 11.0286 19.9101 10.9323C21.4738 10.7489 22.8954 10.6526 24.1794 10.6205C25.7156 10.5792 27.0592 10.6342 28.2148 10.7351C29.5814 10.8589 30.682 11.047 31.5257 11.2441C32.2961 11.4184 32.9519 11.4459 33.1995 11.7257C33.1995 11.7257 36.7168 16.4214 37.7348 17.013C37.8678 17.091 37.9916 17.0634 38.01 17.0589C38.5419 16.9167 35.9418 10.9461 36.084 10.7397C36.2078 10.5563 40.1102 8.89625 39.9956 8.31386L40.0002 8.32304Z" fill="#424242"/>
</svg>
