<svg width="32" height="22" viewBox="0 0 32 22" fill="none" xmlns="http://www.w3.org/2000/svg">
<path d="M29.7257 8.18303H28.7208C28.8823 7.72178 28.965 7.2366 28.9652 6.74789C28.9652 4.35759 27.0206 2.41296 24.6303 2.41296C24.5652 2.41296 24.4992 2.41454 24.4324 2.4177C23.6277 1.25501 22.2859 0.543709 20.8642 0.543709C19.4426 0.543709 18.1007 1.25507 17.2961 2.4177C17.2302 2.41456 17.1642 2.41298 17.0982 2.41296C14.7079 2.41296 12.7632 4.35759 12.7632 6.74789C12.7635 7.2366 12.8462 7.72178 13.0077 8.18303H11.3605H11.031H10.4479H9.21864H8.51072C8.42514 8.09745 8.63174 8.18303 8.51072 8.18303C8.38969 8.18303 8.5963 8.09745 8.51072 8.18303C8.42514 8.26861 8.51072 8.062 8.51072 8.18303C8.42514 8.09745 8.51072 8.30406 8.51072 8.18303C8.63441 8.18303 11.3605 8.18303 11.3605 8.18303C11.2821 8.22197 11.4476 8.19267 11.3605 8.18303C11.439 8.14409 12.4542 8.18303 12.4542 8.18303C12.4542 8.18303 11.8093 8.18303 13.0077 8.18303C13.9412 8.18303 14.298 3.56483 14.298 3.56483C14.2377 3.56366 14.3531 3.58907 14.298 3.56483C14.3582 3.566 14.5195 3.24649 14.5756 3.2244C14.5323 3.26634 14.6316 3.20232 14.5756 3.2244C14.5518 3.27975 14.6188 3.18246 14.5756 3.2244C14.5994 3.16905 14.9781 3.28464 14.9788 3.2244C14.9795 3.16416 15.0014 2.93984 14.9788 2.88398C14.9563 2.82811 14.3403 1.90559 14.298 1.8627C13.5813 1.12377 12.3689 0.672086 11.3605 0.56762C11.3605 0.56762 11.0494 0.493445 10.8476 0.500997C10.6894 0.506919 10.4478 0.568715 10.4478 0.568715C9.19948 0.702811 8.05382 1.38035 7.33595 2.4177C7.27004 2.41456 7.20407 2.41298 7.13809 2.41296C7.02803 2.41296 6.9193 2.41843 6.81125 2.42653C6.81125 2.42653 6.50865 2.43557 6.31929 2.47264C6.15144 2.50551 5.89862 2.59445 5.89862 2.59445C4.11053 3.12907 2.80316 4.78829 2.80316 6.74789C2.8034 7.23661 2.88605 7.72179 3.04762 8.18303H2.04263C1.98271 8.18302 1.92336 8.19482 1.868 8.21775C1.81263 8.24068 1.76232 8.27429 1.71995 8.31666C1.67758 8.35904 1.64396 8.40934 1.62104 8.46471C1.59811 8.52008 1.58631 8.57942 1.58632 8.63934C1.58632 13.9221 4.48234 18.7547 9.14411 21.2511C9.21037 21.2866 9.28438 21.3052 9.35955 21.3052H22.4089C22.4841 21.3052 22.5581 21.2866 22.6243 21.2511C27.286 18.7547 30.1821 13.9221 30.1821 8.63934C30.1821 8.51832 30.134 8.40226 30.0484 8.31668C29.9628 8.2311 29.8468 8.18303 29.7257 8.18303Z" fill="#424242"/>
<path d="M0 7.6499H32C32 7.6499 31.4644 13.0497 29.7674 15.9276C28.0301 18.8739 23.4419 21.9478 23.4419 21.9478H8.55814C8.55814 21.9478 3.59456 18.9943 1.86047 15.9276C0.285147 13.1417 0 7.6499 0 7.6499Z" fill="#2C2C2C"/>
</svg>
