<svg width="24" height="26" viewBox="0 0 24 26" fill="none" xmlns="http://www.w3.org/2000/svg">
<path d="M23.9838 9.0519C23.9959 8.9628 24 8.86966 24 8.77651C24 5.90914 18.6298 3.58447 12 3.58447C5.37023 3.58447 0 5.90914 0 8.77651V20.4971H0.0162033C0.344249 23.2348 5.58488 25.4137 12 25.4137C18.4151 25.4137 23.6517 23.2348 23.9838 20.4971C23.9959 20.4039 24 20.3148 24 20.2217C24 20.1285 23.9959 20.0394 23.9838 19.9463V9.0519ZM12 13.4866C6.21262 13.4866 1.51873 11.575 1.51873 9.2139C1.51873 6.85278 6.21262 4.94121 12 4.94121C17.7874 4.94121 22.4813 6.85278 22.4813 9.2139C22.4813 11.575 17.7874 13.4866 12 13.4866Z" fill="#424242"/>
<ellipse cx="11" cy="4.5" rx="11" ry="4.5" transform="matrix(-1 0 0 1 23 4.74512)" fill="white"/>
<ellipse cx="10" cy="4" rx="10" ry="4" transform="matrix(-1 0 0 1 22 1.74902)" fill="#424242"/>
</svg>
