<svg width="30" height="29" viewBox="0 0 30 29" fill="none" xmlns="http://www.w3.org/2000/svg">
<path d="M29 6.4675C29 9.48712 26.4687 11.935 23.3462 11.935C20.2236 11.935 17.6923 9.48712 17.6923 6.4675C17.6923 3.44788 20.2236 1 23.3462 1C26.4687 1 29 3.44788 29 6.4675Z" fill="#2A2A2F"/>
<path d="M12.3077 22.5325C12.3077 25.5521 9.77638 28 6.65385 28C3.53131 28 1 25.5521 1 22.5325C1 19.5129 3.53131 17.065 6.65385 17.065C9.77638 17.065 12.3077 19.5129 12.3077 22.5325Z" fill="#2A2A2F"/>
<path d="M17.6923 17.065H29V26.1775C29 27.184 28.1562 28 27.1154 28H19.5769C18.5361 28 17.6923 27.184 17.6923 26.1775V17.065Z" fill="#F03C1F"/>
<path d="M1 1H12.3077V10.1125C12.3077 11.119 11.4639 11.935 10.4231 11.935H2.88462C1.84377 11.935 1 11.119 1 10.1125V1Z" fill="#F03C1F"/>
</svg>
