<svg width="13" height="15" viewBox="0 0 13 15" fill="none" xmlns="http://www.w3.org/2000/svg">
<path d="M2.16681 3.94717C2.16681 1.7707 4.11087 0 6.50042 0C8.88998 0 10.834 1.7707 10.834 3.94717C10.834 6.12363 8.88998 7.89433 6.50042 7.89433C4.11087 7.89433 2.16681 6.12363 2.16681 3.94717ZM10.0687 8.73985C9.58423 8.62775 9.05727 8.69092 8.62131 8.91196C7.30563 9.57824 5.69522 9.57824 4.37953 8.91196C3.94444 8.69171 3.41662 8.62933 2.93212 8.73985C1.20561 9.13693 0 10.5642 0 12.2102V13.0083C0 13.512 0.147326 14.0045 0.427278 14.4339C0.655226 14.7829 1.08255 15 1.54105 15H11.459C11.9174 15 12.3447 14.7837 12.5727 14.4332C12.8526 14.0045 13 13.512 13 13.0083V12.2102C13.0009 10.5642 11.7952 9.13693 10.0687 8.73985Z" fill="#2A2A2F"/>
</svg>
