<svg width="349" height="139" viewBox="0 0 349 139" fill="none" xmlns="http://www.w3.org/2000/svg">
<rect width="349" height="139" rx="19" fill="#2A2A2F"/>
<path d="M90.5 81.22V75.7H90.73C91.42 75.7 91.903 75.4777 92.179 75.033C92.4703 74.573 92.6773 73.6837 92.8 72.365L93.674 61.9H104.07V75.7H105.795V81.22H103.38V78H92.915V81.22H90.5ZM94.41 75.7H101.655V64.2H95.905L95.1 73.86C95.0387 74.4887 94.9083 74.9717 94.709 75.309C94.6017 75.493 94.502 75.6233 94.41 75.7ZM110.566 75.102C111.225 75.8073 112.053 76.16 113.05 76.16C114.047 76.16 114.867 75.8073 115.511 75.102C116.17 74.3813 116.5 73.4307 116.5 72.25C116.5 71.0693 116.17 70.1263 115.511 69.421C114.867 68.7003 114.047 68.34 113.05 68.34C112.053 68.34 111.225 68.7003 110.566 69.421C109.922 70.1263 109.6 71.0693 109.6 72.25C109.6 73.4307 109.922 74.3813 110.566 75.102ZM117.167 76.574C116.094 77.678 114.721 78.23 113.05 78.23C111.379 78.23 109.999 77.678 108.91 76.574C107.837 75.47 107.3 74.0287 107.3 72.25C107.3 70.4713 107.837 69.03 108.91 67.926C109.999 66.822 111.379 66.27 113.05 66.27C114.721 66.27 116.094 66.822 117.167 67.926C118.256 69.03 118.8 70.4713 118.8 72.25C118.8 74.0287 118.256 75.47 117.167 76.574ZM121.217 78V66.5H131.222V78H128.922V68.57H123.517V78H121.217ZM136.913 75.102C137.572 75.8073 138.4 76.16 139.397 76.16C140.393 76.16 141.214 75.8073 141.858 75.102C142.517 74.3813 142.847 73.4307 142.847 72.25C142.847 71.0693 142.517 70.1263 141.858 69.421C141.214 68.7003 140.393 68.34 139.397 68.34C138.4 68.34 137.572 68.7003 136.913 69.421C136.269 70.1263 135.947 71.0693 135.947 72.25C135.947 73.4307 136.269 74.3813 136.913 75.102ZM143.514 76.574C142.44 77.678 141.068 78.23 139.397 78.23C137.725 78.23 136.345 77.678 135.257 76.574C134.183 75.47 133.647 74.0287 133.647 72.25C133.647 70.4713 134.183 69.03 135.257 67.926C136.345 66.822 137.725 66.27 139.397 66.27C141.068 66.27 142.44 66.822 143.514 67.926C144.602 69.03 145.147 70.4713 145.147 72.25C145.147 74.0287 144.602 75.47 143.514 76.574ZM145.959 78.115V75.93H146.534C147.5 75.93 148.036 75.3167 148.144 74.09L148.834 66.5H156.999V78H154.699V68.57H150.973L150.444 74.435C150.321 75.7077 149.968 76.643 149.386 77.241C148.818 77.8237 147.983 78.115 146.879 78.115H145.959ZM159.984 78V66.5H162.284V71.1H167.689V66.5H169.989V78H167.689V73.285H162.284V78H159.984ZM172.989 78V66.5H175.289V74.78H175.749L179.659 66.5H182.994V78H180.694V69.72H180.234L176.324 78H172.989ZM188.639 78V68.685H184.844V66.5H194.734V68.685H190.939V78H188.639ZM197.849 71.33H204.634C204.511 70.3947 204.151 69.6433 203.553 69.076C202.955 68.5087 202.204 68.225 201.299 68.225C200.348 68.225 199.582 68.5087 198.999 69.076C198.416 69.628 198.033 70.3793 197.849 71.33ZM204.059 74.665H206.474C206.137 75.585 205.523 76.413 204.634 77.149C203.76 77.8697 202.648 78.23 201.299 78.23C199.628 78.23 198.248 77.678 197.159 76.574C196.086 75.47 195.549 74.0287 195.549 72.25C195.549 70.4713 196.086 69.03 197.159 67.926C198.248 66.822 199.628 66.27 201.299 66.27C202.863 66.27 204.174 66.8067 205.232 67.88C206.29 68.9533 206.819 70.295 206.819 71.905C206.819 72.043 206.796 72.319 206.75 72.733L206.704 73.055H197.849C197.972 74.0363 198.347 74.8183 198.976 75.401C199.605 75.9837 200.379 76.275 201.299 76.275C201.943 76.275 202.51 76.1217 203.001 75.815C203.507 75.493 203.86 75.1097 204.059 74.665ZM207.636 78.115V75.93H208.211C209.177 75.93 209.714 75.3167 209.821 74.09L210.511 66.5H218.676V78H216.376V68.57H212.65L212.121 74.435C211.999 75.7077 211.646 76.643 211.063 77.241C210.496 77.8237 209.66 78.115 208.556 78.115H207.636ZM221.662 78V66.5H223.962V70.18H227.297C228.493 70.18 229.459 70.548 230.195 71.284C230.946 72.0047 231.322 72.94 231.322 74.09C231.322 75.24 230.946 76.183 230.195 76.919C229.459 77.6397 228.493 78 227.297 78H221.662ZM223.962 76.045H227.067C227.65 76.045 228.117 75.8687 228.47 75.516C228.838 75.148 229.022 74.6727 229.022 74.09C229.022 73.5073 228.838 73.0397 228.47 72.687C228.117 72.319 227.65 72.135 227.067 72.135H223.962V76.045ZM233.499 78V66.5H235.799V71.1H241.204V66.5H243.504V78H241.204V73.285H235.799V78H233.499ZM249.195 75.102C249.854 75.8073 250.682 76.16 251.679 76.16C252.675 76.16 253.496 75.8073 254.14 75.102C254.799 74.3813 255.129 73.4307 255.129 72.25C255.129 71.0693 254.799 70.1263 254.14 69.421C253.496 68.7003 252.675 68.34 251.679 68.34C250.682 68.34 249.854 68.7003 249.195 69.421C248.551 70.1263 248.229 71.0693 248.229 72.25C248.229 73.4307 248.551 74.3813 249.195 75.102ZM255.796 76.574C254.722 77.678 253.35 78.23 251.679 78.23C250.007 78.23 248.627 77.678 247.539 76.574C246.465 75.47 245.929 74.0287 245.929 72.25C245.929 70.4713 246.465 69.03 247.539 67.926C248.627 66.822 250.007 66.27 251.679 66.27C253.35 66.27 254.722 66.822 255.796 67.926C256.884 69.03 257.429 70.4713 257.429 72.25C257.429 74.0287 256.884 75.47 255.796 76.574Z" fill="white"/>
</svg>
