<svg width="349" height="139" viewBox="0 0 349 139" fill="none" xmlns="http://www.w3.org/2000/svg">
<rect width="349" height="139" rx="19" fill="#F8F8F8"/>
<path d="M88.225 78V61.9H101.105V78H98.69V64.2H90.64V78H88.225ZM106.049 71.33H112.834C112.711 70.3947 112.351 69.6433 111.753 69.076C111.155 68.5087 110.404 68.225 109.499 68.225C108.548 68.225 107.782 68.5087 107.199 69.076C106.616 69.628 106.233 70.3793 106.049 71.33ZM112.259 74.665H114.674C114.337 75.585 113.723 76.413 112.834 77.149C111.96 77.8697 110.848 78.23 109.499 78.23C107.828 78.23 106.448 77.678 105.359 76.574C104.286 75.47 103.749 74.0287 103.749 72.25C103.749 70.4713 104.286 69.03 105.359 67.926C106.448 66.822 107.828 66.27 109.499 66.27C111.063 66.27 112.374 66.8067 113.432 67.88C114.49 68.9533 115.019 70.295 115.019 71.905C115.019 72.043 114.996 72.319 114.95 72.733L114.904 73.055H106.049C106.172 74.0363 106.547 74.8183 107.176 75.401C107.805 75.9837 108.579 76.275 109.499 76.275C110.143 76.275 110.71 76.1217 111.201 75.815C111.707 75.493 112.06 75.1097 112.259 74.665ZM117.441 82.6V66.5H119.511L119.741 67.88H119.856C120.102 67.604 120.309 67.3893 120.477 67.236C120.646 67.0673 121.006 66.868 121.558 66.638C122.126 66.3927 122.747 66.27 123.421 66.27C124.955 66.27 126.22 66.8143 127.216 67.903C128.213 68.9917 128.711 70.4407 128.711 72.25C128.711 74.0593 128.213 75.5083 127.216 76.597C126.22 77.6857 124.955 78.23 123.421 78.23C121.842 78.23 120.654 77.6933 119.856 76.62H119.741V82.6H117.441ZM120.684 75.079C121.328 75.7997 122.126 76.16 123.076 76.16C124.027 76.16 124.817 75.7997 125.445 75.079C126.089 74.3583 126.411 73.4153 126.411 72.25C126.411 71.0847 126.089 70.1417 125.445 69.421C124.817 68.7003 124.027 68.34 123.076 68.34C122.126 68.34 121.328 68.7003 120.684 69.421C120.056 70.1417 119.741 71.0847 119.741 72.25C119.741 73.4153 120.056 74.3583 120.684 75.079ZM132.845 71.33H139.63C139.507 70.3947 139.147 69.6433 138.549 69.076C137.951 68.5087 137.2 68.225 136.295 68.225C135.344 68.225 134.578 68.5087 133.995 69.076C133.412 69.628 133.029 70.3793 132.845 71.33ZM139.055 74.665H141.47C141.133 75.585 140.519 76.413 139.63 77.149C138.756 77.8697 137.644 78.23 136.295 78.23C134.624 78.23 133.244 77.678 132.155 76.574C131.082 75.47 130.545 74.0287 130.545 72.25C130.545 70.4713 131.082 69.03 132.155 67.926C133.244 66.822 134.624 66.27 136.295 66.27C137.859 66.27 139.17 66.8067 140.228 67.88C141.286 68.9533 141.815 70.295 141.815 71.905C141.815 72.043 141.792 72.319 141.746 72.733L141.7 73.055H132.845C132.968 74.0363 133.343 74.8183 133.972 75.401C134.601 75.9837 135.375 76.275 136.295 76.275C136.939 76.275 137.506 76.1217 137.997 75.815C138.503 75.493 138.856 75.1097 139.055 74.665ZM144.237 78V66.5H146.537V74.78H146.997L150.907 66.5H154.242V78H151.942V69.72H151.482L147.572 78H144.237ZM145.847 61.555H147.687C147.933 62.5517 148.469 63.05 149.297 63.05C150.125 63.05 150.662 62.5517 150.907 61.555H152.747C152.686 62.475 152.341 63.2263 151.712 63.809C151.084 64.3763 150.279 64.66 149.297 64.66C148.316 64.66 147.511 64.3763 146.882 63.809C146.254 63.2263 145.909 62.475 145.847 61.555ZM159.887 78V68.685H156.092V66.5H165.982V68.685H162.187V78H159.887ZM167.821 78V66.5H170.121V74.78H170.581L174.491 66.5H177.826V78H175.526V69.72H175.066L171.156 78H167.821ZM186.239 78V66.5H192.449C193.538 66.5 194.381 66.7837 194.979 67.351C195.592 67.9183 195.899 68.6697 195.899 69.605C195.899 70.3257 195.669 70.9467 195.209 71.468C195.01 71.698 194.78 71.882 194.519 72.02V72.135C194.78 72.2577 195.048 72.4417 195.324 72.687C195.861 73.285 196.129 73.9827 196.129 74.78C196.129 75.654 195.792 76.413 195.117 77.057C194.458 77.6857 193.645 78 192.679 78H186.239ZM188.539 71.215H192.104C192.564 71.215 192.924 71.0923 193.185 70.847C193.461 70.5863 193.599 70.249 193.599 69.835C193.599 69.421 193.461 69.0913 193.185 68.846C192.924 68.5853 192.564 68.455 192.104 68.455H188.539V71.215ZM188.539 76.045H192.219C192.679 76.045 193.062 75.8993 193.369 75.608C193.676 75.3167 193.829 74.964 193.829 74.55C193.829 74.136 193.676 73.7833 193.369 73.492C193.062 73.2007 192.679 73.055 192.219 73.055H188.539V76.045ZM203.961 78V66.5H207.756L210.516 74.895H210.976L213.736 66.5H217.531V78H215.231V69.605H214.771L212.011 78H209.481L206.721 69.605H206.261V78H203.961ZM222.24 71.33H229.025C228.902 70.3947 228.542 69.6433 227.944 69.076C227.346 68.5087 226.594 68.225 225.69 68.225C224.739 68.225 223.972 68.5087 223.39 69.076C222.807 69.628 222.424 70.3793 222.24 71.33ZM228.45 74.665H230.865C230.527 75.585 229.914 76.413 229.025 77.149C228.151 77.8697 227.039 78.23 225.69 78.23C224.018 78.23 222.638 77.678 221.55 76.574C220.476 75.47 219.94 74.0287 219.94 72.25C219.94 70.4713 220.476 69.03 221.55 67.926C222.638 66.822 224.018 66.27 225.69 66.27C227.254 66.27 228.565 66.8067 229.623 67.88C230.681 68.9533 231.21 70.295 231.21 71.905C231.21 72.043 231.187 72.319 231.141 72.733L231.095 73.055H222.24C222.362 74.0363 222.738 74.8183 223.367 75.401C223.995 75.9837 224.77 76.275 225.69 76.275C226.334 76.275 226.901 76.1217 227.392 75.815C227.898 75.493 228.25 75.1097 228.45 74.665ZM233.632 78V66.5H235.932V71.1H241.337V66.5H243.637V78H241.337V73.285H235.932V78H233.632ZM246.637 78V66.5H248.937V71.1H250.524C250.662 69.812 251.198 68.685 252.134 67.719C253.084 66.753 254.357 66.27 255.952 66.27C257.577 66.27 258.903 66.8143 259.931 67.903C260.958 68.9763 261.472 70.4253 261.472 72.25C261.472 74.0747 260.958 75.5313 259.931 76.62C258.903 77.6933 257.577 78.23 255.952 78.23C254.357 78.23 253.084 77.7393 252.134 76.758C251.183 75.7767 250.639 74.619 250.501 73.285H248.937V78H246.637ZM253.629 75.148C254.227 75.8227 255.001 76.16 255.952 76.16C256.902 76.16 257.677 75.8227 258.275 75.148C258.873 74.458 259.172 73.492 259.172 72.25C259.172 71.008 258.873 70.0497 258.275 69.375C257.677 68.685 256.902 68.34 255.952 68.34C255.001 68.34 254.227 68.685 253.629 69.375C253.031 70.0497 252.732 71.008 252.732 72.25C252.732 73.492 253.031 74.458 253.629 75.148Z" fill="black"/>
</svg>
